<?xml version="1.0" standalone="no"?>
<!DOCTYPE svg PUBLIC "-//W3C//DTD SVG 20010904//EN"
 "http://www.w3.org/TR/2001/REC-SVG-20010904/DTD/svg10.dtd">
<svg version="1.0" xmlns="http://www.w3.org/2000/svg"
 width="200.000000pt" height="200.000000pt" viewBox="0 0 200.000000 200.000000"
 preserveAspectRatio="xMidYMid meet">

<g transform="translate(0.000000,200.000000) scale(0.100000,-0.100000)"
fill="#000000" stroke="none">
<path d="M895 1325 c-97 -45 -150 -129 -150 -236 0 -68 10 -98 54 -158 92
-124 298 -129 393 -8 19 23 40 55 48 71 19 37 20 170 3 188 -7 6 -13 19 -13
28 0 18 -50 73 -90 99 -71 47 -167 53 -245 16z m98 -10 c-19 -26 -49 -44 -37
-22 13 22 37 47 46 47 5 0 1 -11 -9 -25z m-51 -15 c-22 -39 -34 -39 -21 0 6
17 17 30 25 30 10 0 9 -6 -4 -30z m95 10 c-14 -11 -31 -20 -39 -20 -18 1 30
40 49 40 11 0 7 -7 -10 -20z m-141 -31 c-13 -32 -14 -32 -15 -8 -1 14 4 30 11
37 19 19 20 7 4 -29z m214 36 c0 -8 -62 -37 -68 -31 -8 9 30 35 51 36 9 0 17
-2 17 -5z m34 -24 c7 -10 -52 -26 -61 -17 -3 3 5 10 18 15 31 13 37 13 43 2z
m-282 -36 c-2 -19 -8 -35 -13 -35 -10 0 -12 53 -2 63 14 15 19 6 15 -28z m183
15 c13 -6 15 -9 5 -9 -8 0 -22 4 -30 9 -18 12 -2 12 25 0z m-78 -6 c-3 -3 -12
-4 -19 -1 -8 3 -5 6 6 6 11 1 17 -2 13 -5z m213 -4 c11 -7 3 -10 -30 -9 -34 0
-40 2 -25 9 27 12 37 12 55 0z m-351 -37 c0 -34 -1 -36 -11 -16 -6 12 -8 29
-5 37 11 27 17 18 16 -21z m89 26 c-16 -9 -15 -12 12 -37 l29 -27 -28 -27 -29
-27 -23 25 -22 24 24 27 c13 15 16 21 7 14 -10 -7 -18 -10 -18 -6 0 10 43 44
55 44 6 0 2 -4 -7 -10z m192 -9 c20 -16 21 -19 5 -13 -20 6 -20 6 -1 -16 13
-14 22 -18 26 -10 5 7 10 4 14 -7 4 -10 4 -15 0 -12 -3 4 -17 -6 -30 -22 l-24
-28 -29 26 -28 27 28 27 c26 25 27 28 11 37 -9 6 -12 10 -7 10 6 1 21 -8 35
-19z m95 -20 c3 -6 -5 -10 -19 -10 -14 0 -28 5 -31 10 -3 6 5 10 19 10 14 0
28 -4 31 -10z m-396 -55 c0 -16 -2 -15 -15 8 -8 15 -12 33 -8 39 9 14 22 -15
23 -47z m43 16 c-9 -16 -18 -28 -20 -27 -5 6 21 56 29 56 5 0 0 -13 -9 -29z
m378 -8 c13 -13 12 -14 -10 -8 -14 4 -32 14 -40 22 -13 13 -12 14 10 8 14 -4
32 -14 40 -22z m-437 -33 c10 -16 14 -30 8 -30 -10 0 -41 39 -41 52 0 17 17 6
33 -22z m387 -14 c0 -26 -6 -18 -14 19 -5 22 -4 26 4 15 5 -8 10 -24 10 -34z
m64 -2 c3 -8 3 -14 0 -14 -10 0 -54 33 -54 41 0 13 48 -11 54 -27z m-209 -11
c31 -46 31 -50 1 -55 -23 -5 -25 -2 -28 44 -1 26 -2 48 -1 48 1 0 14 -17 28
-37z m-206 -25 c-1 -43 -3 -47 -8 -23 -6 28 -3 75 5 75 2 0 3 -24 3 -52z m159
-34 c-2 -2 -14 -1 -25 2 l-22 6 22 34 22 33 3 -35 c2 -20 2 -38 0 -40z m-203
46 c18 -20 15 -38 -4 -25 -15 9 -33 45 -23 45 5 0 17 -9 27 -20z m462 -36 c-7
-7 -46 35 -47 51 0 5 12 -3 27 -17 15 -15 24 -30 20 -34z m-456 -13 c13 -11
21 -22 18 -26 -4 -3 -20 5 -35 19 -34 29 -18 35 17 7z m386 -3 c-3 -8 -6 -5
-6 6 -1 11 2 17 5 13 3 -3 4 -12 1 -19z m63 -25 c0 -22 -16 -15 -28 12 -17 36
-15 41 8 20 11 -10 20 -24 20 -32z m-302 -50 c-17 -19 -24 -21 -37 -10 -37 28
-41 41 -18 65 l21 22 28 -27 28 -27 -22 -23z m110 60 c-6 -7 -27 -13 -48 -13
-21 0 -42 6 -48 13 -8 9 2 12 48 12 46 0 56 -3 48 -12z m81 -44 c-18 -34 -42
-40 -67 -16 l-22 21 27 28 27 28 22 -21 c18 -17 21 -26 13 -40z m-285 25 c3
-8 2 -12 -4 -9 -6 3 -10 10 -10 16 0 14 7 11 14 -7z m305 -28 c-34 -50 -86
-76 -149 -76 -58 0 -117 27 -139 63 -11 18 -8 17 15 -5 82 -76 210 -62 269 29
11 17 22 29 24 27 2 -2 -7 -19 -20 -38z m71 -2 c0 -7 -4 -16 -10 -19 -5 -3
-10 0 -10 7 0 7 -3 24 -6 38 -5 24 -5 24 10 6 9 -11 16 -25 16 -32z m-415 24
c35 -16 31 -29 -5 -17 -16 6 -30 15 -30 20 0 12 4 11 35 -3z m385 -55 c0 -12
-4 -25 -10 -28 -6 -4 -10 11 -10 37 0 31 3 39 10 28 5 -8 10 -25 10 -37z
m-335 6 c5 -5 -4 -9 -22 -9 -17 0 -36 7 -43 15 -11 13 -8 14 21 9 19 -4 38
-11 44 -15z m305 -28 c0 -17 -4 -33 -10 -36 -6 -4 -10 8 -10 29 0 20 5 36 10
36 6 0 10 -13 10 -29z m-275 -1 c4 -6 -8 -10 -29 -10 -19 0 -38 5 -41 10 -4 6
8 10 29 10 19 0 38 -4 41 -10z m238 -25 c-3 -13 -11 -30 -19 -36 -17 -14 -17
-11 -3 30 13 37 28 42 22 6z m-208 -5 c-3 -5 -21 -10 -38 -10 -24 0 -28 3 -17
10 20 13 63 13 55 0z m175 2 c0 -12 -30 -52 -40 -52 -5 0 -1 13 8 30 16 28 32
39 32 22z m-130 -10 c0 -8 -43 -32 -55 -32 -14 0 -2 18 18 28 28 13 37 14 37
4z m84 -4 c-13 -23 -37 -48 -46 -48 -5 0 1 14 14 30 21 29 46 43 32 18z m-44
-4 c0 -11 -34 -33 -50 -33 -10 -1 -6 6 10 19 26 20 40 25 40 14z"/>
<path d="M488 741 c-2 -38 1 -61 7 -61 10 0 11 107 1 117 -2 3 -6 -23 -8 -56z"/>
<path d="M198 730 c-2 -30 1 -50 7 -50 7 0 10 16 8 38 l-4 37 17 -30 c9 -16
19 -32 21 -35 5 -6 23 21 23 35 0 6 -5 3 -10 -5 -7 -12 -12 -7 -25 23 -8 20
-19 37 -24 37 -5 0 -11 -23 -13 -50z"/>
<path d="M277 760 c-3 -12 -1 -18 5 -14 7 4 9 -6 6 -30 -2 -21 0 -36 7 -36 5
0 10 22 10 50 0 51 -18 69 -28 30z"/>
<path d="M845 730 c0 -50 0 -50 32 -50 17 0 35 4 38 10 4 6 -6 7 -26 3 l-31
-6 3 47 c3 27 0 46 -6 46 -5 0 -10 -22 -10 -50z"/>
<path d="M1525 730 c0 -47 1 -50 26 -50 31 0 54 23 43 42 -5 7 -8 22 -9 32 0
11 -5 21 -12 23 -7 3 -9 -3 -6 -16 4 -15 1 -21 -12 -21 -12 0 -16 6 -12 20 3
11 0 20 -6 20 -8 0 -12 -19 -12 -50z m53 -23 c2 -12 -3 -17 -17 -17 -15 0 -21
6 -21 21 0 25 33 22 38 -4z"/>
<path d="M1706 758 c-14 -29 -3 -73 19 -76 13 -2 16 0 8 5 -6 5 -13 26 -15 48
-3 29 -6 35 -12 23z"/>
<path d="M370 715 c0 -19 4 -35 8 -35 4 0 6 16 4 35 -2 19 -6 35 -8 35 -2 0
-4 -16 -4 -35z"/>
<path d="M414 736 c-14 -37 22 -74 47 -49 6 6 1 9 -13 9 -19 -1 -23 4 -23 27
1 30 -3 34 -11 13z"/>
<path d="M450 740 c0 -5 5 -10 10 -10 6 0 10 5 10 10 0 6 -4 10 -10 10 -5 0
-10 -4 -10 -10z"/>
<path d="M535 715 c0 -19 5 -35 10 -35 7 0 9 15 7 35 -2 19 -7 35 -11 35 -3 0
-6 -16 -6 -35z"/>
<path d="M585 715 c0 -19 5 -35 10 -35 7 0 9 15 7 35 -2 19 -7 35 -11 35 -3 0
-6 -16 -6 -35z"/>
<path d="M630 715 c0 -21 5 -35 13 -35 7 0 12 14 12 35 0 21 -5 35 -12 35 -8
0 -13 -14 -13 -35z"/>
<path d="M680 716 c0 -23 5 -36 13 -36 9 0 12 10 9 30 -6 44 -22 47 -22 6z"/>
<path d="M724 736 c-11 -28 1 -51 26 -53 15 -1 18 0 8 3 -18 6 -22 15 -19 47
3 21 -7 23 -15 3z"/>
<path d="M763 735 c0 -8 4 -15 9 -15 4 0 8 7 8 15 0 8 -4 15 -8 15 -5 0 -9 -7
-9 -15z"/>
<path d="M934 736 c-11 -28 1 -51 26 -53 25 -3 25 -3 2 7 -17 7 -21 16 -18 35
5 27 -1 34 -10 11z"/>
<path d="M973 735 c0 -8 4 -15 9 -15 4 0 8 7 8 15 0 8 -4 15 -8 15 -5 0 -9 -7
-9 -15z"/>
<path d="M1010 739 c0 -5 5 -7 10 -4 6 3 10 8 10 11 0 2 -4 4 -10 4 -5 0 -10
-5 -10 -11z"/>
<path d="M1050 721 c0 -21 -5 -31 -15 -31 -17 0 -20 16 -5 23 6 3 5 4 -2 3 -7
-1 -14 -10 -16 -20 -3 -13 3 -16 27 -14 26 2 31 6 31 30 0 15 -4 30 -10 33 -6
4 -10 -7 -10 -24z"/>
<path d="M1095 715 c0 -19 5 -35 10 -35 6 0 10 16 10 35 0 19 -4 35 -10 35 -5
0 -10 -16 -10 -35z"/>
<path d="M1165 715 c0 -19 5 -35 10 -35 7 0 9 15 7 35 -2 19 -7 35 -11 35 -3
0 -6 -16 -6 -35z"/>
<path d="M1215 715 c0 -19 5 -35 10 -35 7 0 9 15 7 35 -2 19 -7 35 -11 35 -3
0 -6 -16 -6 -35z"/>
<path d="M1258 715 c-3 -24 0 -35 9 -35 8 0 13 13 13 35 0 19 -4 35 -9 35 -5
0 -11 -16 -13 -35z"/>
<path d="M1305 715 c0 -19 5 -35 10 -35 6 0 10 16 10 35 0 19 -4 35 -10 35 -5
0 -10 -16 -10 -35z"/>
<path d="M1355 715 c0 -19 5 -35 10 -35 7 0 9 15 7 35 -2 19 -7 35 -11 35 -3
0 -6 -16 -6 -35z"/>
<path d="M1399 707 c-2 -27 -1 -51 3 -53 5 -3 8 2 8 10 0 9 9 16 20 16 12 0
20 -7 20 -17 0 -12 3 -14 11 -6 16 16 2 33 -28 33 -16 0 -23 5 -20 13 2 6 1
21 -3 32 -5 14 -8 7 -11 -28z"/>
<path d="M1440 729 c0 -11 5 -17 10 -14 6 3 10 13 10 21 0 8 -4 14 -10 14 -5
0 -10 -9 -10 -21z"/>
<path d="M1621 736 c-9 -11 -10 -20 -1 -35 11 -21 44 -29 54 -13 3 5 -5 8 -17
8 -18 -1 -22 4 -22 27 1 32 1 31 -14 13z"/>
<path d="M1660 736 c0 -9 5 -16 10 -16 6 0 10 4 10 9 0 6 -4 13 -10 16 -5 3
-10 -1 -10 -9z"/>
<path d="M1760 737 c0 -11 9 -21 21 -24 12 -4 18 -11 15 -20 -3 -8 -1 -11 4
-8 15 9 12 35 -5 35 -7 0 -19 8 -24 18 -10 16 -10 16 -11 -1z"/>
<path d="M337 713 c-13 -13 -7 -33 11 -33 13 0 14 2 3 9 -7 5 -10 14 -7 20 8
12 3 15 -7 4z"/>
<path d="M1760 690 c0 -5 5 -10 11 -10 5 0 7 5 4 10 -3 6 -8 10 -11 10 -2 0
-4 -4 -4 -10z"/>
</g>
</svg>
